<?xml version="1.0" encoding="UTF-8" standalone="no"?>
<!-- Created with Inkscape (http://www.inkscape.org/) -->

<svg
   xmlns:dc="http://purl.org/dc/elements/1.1/"
   xmlns:cc="http://creativecommons.org/ns#"
   xmlns:rdf="http://www.w3.org/1999/02/22-rdf-syntax-ns#"
   xmlns:svg="http://www.w3.org/2000/svg"
   xmlns="http://www.w3.org/2000/svg"
   xmlns:sodipodi="http://sodipodi.sourceforge.net/DTD/sodipodi-0.dtd"
   xmlns:inkscape="http://www.inkscape.org/namespaces/inkscape"
   width="1000"
   height="1000"
   id="svg4691"
   version="1.1"
   inkscape:version="0.48.4 r9939"
   sodipodi:docname="boundaries.svg">
  <defs
     id="defs4693">
	
	
	

	
	
	
	
	
	
	
</defs>
  <sodipodi:namedview
     id="base"
     pagecolor="#ffffff"
     bordercolor="#666666"
     borderopacity="1.0"
     inkscape:pageopacity="0.0"
     inkscape:pageshadow="2"
     inkscape:zoom="0.7"
     inkscape:cx="938.97328"
     inkscape:cy="286.93959"
     inkscape:document-units="px"
     inkscape:current-layer="layer1"
     showgrid="false"
     inkscape:window-width="1366"
     inkscape:window-height="705"
     inkscape:window-x="-8"
     inkscape:window-y="-8"
     inkscape:window-maximized="1" />
  <metadata
     id="metadata4696">
    <rdf:RDF>
      <cc:Work
         rdf:about="">
        <dc:format>image/svg+xml</dc:format>
        <dc:type
           rdf:resource="http://purl.org/dc/dcmitype/StillImage" />
        <dc:title></dc:title>
      </cc:Work>
    </rdf:RDF>
  </metadata>
  <g
     inkscape:label="Layer 1"
     inkscape:groupmode="layer"
     id="layer1"
     transform="translate(0,-52.362183)">
    <path
       id="path4704"
       d="M 506.40529,1050.3641"
       inkscape:connector-curvature="0"
       style="fill:none;stroke:#000000;stroke-width:0.35331774;stroke-linecap:round;stroke-linejoin:round" />
    <path
       id="path4706"
       d="M 397.82934,1050.3641"
       inkscape:connector-curvature="0"
       style="fill:none;stroke:#000000;stroke-width:0.35331774;stroke-linecap:round;stroke-linejoin:round" />
    <path
       id="path4708"
       d="M 540.67429,937.14908"
       inkscape:connector-curvature="0"
       style="fill:none;stroke:#000000;stroke-width:0.35331774;stroke-linecap:round;stroke-linejoin:round" />
    <path
       id="path4710"
       d="M 538.55615,935.93896"
       inkscape:connector-curvature="0"
       style="fill:none;stroke:#000000;stroke-width:0.35331774;stroke-linecap:round;stroke-linejoin:round" />
    <path
       id="path4712"
       d="M 865.04683,1050.3641"
       inkscape:connector-curvature="0"
       style="fill:none;stroke:#000000;stroke-width:0.35331774;stroke-linecap:round;stroke-linejoin:round" />
    <path
       id="path4719"
       d="m 985.24976,789.52727 c 0.11236,-2.29833 -2.91558,-7.25714 -5.16021,-7.44052 -0.20633,-4.13699 -1.23237,-5.92973 -4.12993,-8.91526 -2.70994,-2.79227 -2.17113,-5.79335 -2.71807,-9.22018 -0.48298,-3.02405 -1.27336,-6.37032 -2.48382,-9.21029 -1.46698,-3.44131 -4.32532,-4.93514 -6.61623,-7.86944 -1.84079,-2.35805 -5.55875,-7.09462 -4.21332,-10.2017 1.3525,-3.12227 8.71812,-3.98825 8.17507,-7.00841 -0.22436,-1.24721 -1.78779,-1.87294 -2.23297,-3.39079 -0.66989,-2.28208 -0.0586,-4.98002 0.12084,-7.29566 0.26075,-3.36853 -0.058,-6.94022 -0.058,-10.38719 l 0,0.23566 c -1.88283,-1.02815 -1.34084,-4.11473 -1.92947,-5.86507 -0.78754,-2.3425 -2.49583,-4.27373 -3.49925,-6.51871 -1.11578,-2.49549 -2.59972,-5.03902 -3.80276,-7.46066 -2.53117,-5.09519 -6.10533,-9.5477 -10.95533,-12.95404 -4.31789,-3.03253 -9.95402,-4.6221 -14.96371,-6.24807 -3.83067,-1.24333 -6.63107,-1.77719 -7.71787,-6.11805 -0.81369,-3.24982 -1.50726,-5.65874 -1.36204,-9.16718 0.22506,-5.45064 0.0965,-10.14199 -1.52775,-15.28877 -0.89106,-2.82265 -1.05924,-4.54755 -3.12085,-7.18436 -1.90121,-2.43153 -3.99815,-3.25724 -6.63672,-4.803 -8.95308,-5.24536 -18.14146,-11.66726 -28.57387,-11.66726 l 0.10847,-0.0604 c -0.6971,0.29573 -1.05041,1.00236 -1.75705,1.00236 -6.71304,0.35332 -13.07276,0.70664 -19.78579,2.11991 -4.94645,1.05995 -9.8929,-0.35332 -14.13271,-2.47322 -4.59313,-2.11991 -9.53958,-3.8865 -14.48603,-2.11991 -2.47322,1.05995 -4.59313,2.47322 -6.35972,4.23981 -0.70663,0.70664 -1.05995,1.41327 -1.76659,1.76659 -2.47322,2.47322 -3.53318,5.65308 -5.65308,8.47963 -1.05996,1.41327 -2.11991,2.47322 -3.53318,3.17986 -4.23981,1.76658 -8.83294,2.82654 -12.0128,7.06635 -2.11991,3.17986 -3.53318,6.35972 -2.82654,10.24622 1.05995,5.29976 3.88649,10.24621 3.17986,15.89929 -0.35332,1.76659 -1.41328,3.17986 -2.82655,3.53318 -8.1263,2.11991 -21.19906,-2.47322 -23.31897,8.83294 -4.23981,5.29977 -10.95285,3.53318 -16.95925,2.47323 -4.59313,-0.70664 -6.71304,3.88649 -8.12631,7.41967 -1.76659,3.8865 -4.59313,6.0064 -8.12631,7.77299 -5.65308,0 -9.53957,4.23981 -13.42607,7.77299 -3.17986,2.82654 -7.41967,3.53318 -11.30617,3.17986 -6.0064,-0.70663 -10.95285,-4.23981 -16.25261,-7.41967 -2.11991,-1.41327 -4.94645,-1.76659 -7.41968,-1.41327 -8.83294,1.76659 -18.0192,3.88649 -22.96565,12.36612 -0.35332,0.35332 0,1.05995 -0.35332,1.41327 -0.70663,0.70664 -0.70663,1.76659 -1.05995,2.47322 -1.41327,3.17986 -4.59313,3.53318 -7.77299,4.23982 -6.71304,2.1199 -12.36612,5.65308 -17.66589,9.89289 -4.59313,0.70664 -7.41967,-3.53317 -8.47962,-7.41967 -0.35332,-1.05995 -1.76659,-1.41327 -2.11991,-2.47322 -2.11991,-7.41968 -7.41967,-13.42608 -13.77939,-17.66589 -2.47323,-1.41327 -4.94645,-2.11991 -7.41967,-2.47322 -3.17986,-0.35332 -6.35972,0.70663 -9.18626,1.76658 -0.70664,0.35332 -1.76659,0.70664 -2.47323,1.05996 -1.76659,0.70663 -2.82654,2.47322 -4.59313,3.17986 -0.70663,0.70663 -1.76659,1.41327 -2.47322,1.76659 -7.06636,6.0064 -10.59954,16.60593 -4.23982,24.73224 0.35332,0.35332 0,1.05995 0.35332,1.41327 3.17986,4.23981 3.8865,10.59953 -0.70663,13.77939 -1.76659,1.05995 -3.8865,0.35332 -5.65309,0.35332 -3.88649,-0.70664 -7.77299,-0.35332 -11.65948,-0.35332 -6.71304,0.70664 -10.59954,6.35972 -13.7794,11.65949 -1.76658,6.35972 -4.59313,13.42607 -2.1199,20.13911 1.76659,4.23981 4.94645,7.41967 7.06635,11.30616 0,3.8865 -1.76659,7.77299 -4.23981,10.59954 -5.65308,5.65308 -14.13271,2.82654 -21.19906,1.76659 -5.29977,-0.70664 -10.95285,0.70663 -13.07276,5.65308 -1.41327,3.53318 -1.41327,7.06635 -2.82654,10.59953 -1.76659,3.53318 -5.65309,3.8865 -8.83295,5.29977 -2.82654,1.41327 -4.94644,3.88649 -5.65308,7.06635 -0.35332,1.05996 -1.76659,1.41327 -2.82654,1.76659 -4.94645,2.11991 -10.59953,3.17986 -13.07276,8.12631 -1.76659,3.53318 -1.05995,7.41967 -2.47322,11.30617 -0.35332,1.05995 -0.35332,2.1199 -1.3207,3.31129 -0.16818,3.94338 1.82488,8.92127 3.4247,12.45445 1.68074,3.71125 3.22474,6.71586 6.06364,9.64805 2.83397,2.92688 5.36584,5.73117 8.84213,8.00547 2.09694,1.37158 6.01135,5.18105 8.78207,4.74082 l -0.12366,-0.15228 c 4.71679,5.09696 11.42983,6.51023 17.78955,7.9235 2.47322,0.70664 4.59313,1.05996 6.71303,1.41327 2.82655,0 5.65309,0 8.47963,0 1.41327,0 2.82654,-1.05995 4.23981,-0.70663 10.59953,1.76659 16.95925,9.53958 25.43888,15.54598 8.12631,5.29977 16.95925,7.41967 25.79219,10.24621 2.47323,1.05996 4.23982,2.82655 6.35972,4.23982 7.41968,4.59313 17.31257,3.53317 23.31897,-2.82655 3.17986,-3.17986 4.59314,-7.06635 5.65309,-11.30616 1.41327,-4.23982 6.0064,-4.59313 9.89289,-6.0064 3.53318,-1.41328 5.29977,-4.94645 8.83295,-7.41968 2.1199,-1.41327 4.59313,-0.70663 7.06635,-0.35331 3.8865,0.70663 7.77299,-1.05996 11.30617,-2.47323 0.70664,-0.35332 1.76659,0 2.82654,0 3.53318,0.70664 7.06636,2.11991 10.59954,2.82654 6.0064,0.70664 11.30616,-1.05995 16.60593,-2.82654 15.19266,-1.05995 29.32537,-6.0064 43.45808,-10.95285 2.47323,-1.05995 4.23981,-2.82654 6.71304,-3.53318 2.47322,-3.17986 6.35972,-4.59313 9.89289,-6.71303 4.23982,-2.82655 7.77299,-5.65309 12.36613,-8.12631 0.70663,-0.35332 1.76658,-0.70664 2.47322,-1.05995 2.82654,-1.41328 6.0064,-1.05996 9.18626,-1.41328 1.05995,0 1.76659,-0.35331 2.82654,-0.70663 3.8865,-1.76659 7.41968,-4.23981 11.65949,-5.65309 10.24621,-3.17985 20.13911,-6.0064 30.73864,-8.1263 4.94645,-0.70664 9.53958,-1.41327 14.48603,-2.11991 7.06635,-0.70664 13.77939,-1.41327 20.84575,-2.11991 3.53317,-2.1199 6.71303,-4.59313 10.24621,-6.0064 4.94645,-1.76659 9.8929,-2.47322 15.19266,-3.53317 0.70664,-0.35332 1.76659,-0.70664 2.47323,-1.05996 2.1199,-1.76659 4.23981,-3.17986 6.71303,-4.94645 3.8865,-2.47322 8.12631,-3.53317 12.36613,-5.65308 4.59313,-1.76659 8.83294,-4.23981 14.1327,-5.65308 1.05996,-0.35332 1.76659,-0.70664 2.47323,-1.05996 10.59953,-6.71303 21.55238,-9.89289 32.50523,-16.25261 1.76659,-1.05996 3.53318,-2.11991 5.29977,-3.17986 0.35331,-0.35332 0.70663,-0.70664 1.05995,-1.05996 3.53318,-1.76659 6.0064,-4.94644 9.53958,-7.06635 0.70663,-0.35332 1.41327,-0.35332 2.13792,-0.79391"
       inkscape:connector-curvature="0"
       style="fill:none;stroke:#000000;stroke-width:0.35331774;stroke-linecap:round;stroke-linejoin:round" />
  </g>
</svg>
