<?xml version="1.0" encoding="UTF-8" standalone="no"?>
<!-- Created with Inkscape (http://www.inkscape.org/) -->

<svg
   xmlns:dc="http://purl.org/dc/elements/1.1/"
   xmlns:cc="http://creativecommons.org/ns#"
   xmlns:rdf="http://www.w3.org/1999/02/22-rdf-syntax-ns#"
   xmlns:svg="http://www.w3.org/2000/svg"
   xmlns="http://www.w3.org/2000/svg"
   xmlns:sodipodi="http://sodipodi.sourceforge.net/DTD/sodipodi-0.dtd"
   xmlns:inkscape="http://www.inkscape.org/namespaces/inkscape"
   width="1000"
   height="1000"
   id="svg4691"
   version="1.1"
   inkscape:version="0.48.4 r9939"
   sodipodi:docname="bound_01.svg">
  <defs
     id="defs4693">
	
	
	

	
	
	
	
	
	
	
</defs>
  <sodipodi:namedview
     id="base"
     pagecolor="#ffffff"
     bordercolor="#666666"
     borderopacity="1.0"
     inkscape:pageopacity="0.0"
     inkscape:pageshadow="2"
     inkscape:zoom="0.7"
     inkscape:cx="938.97328"
     inkscape:cy="286.93959"
     inkscape:document-units="px"
     inkscape:current-layer="layer1"
     showgrid="false"
     inkscape:window-width="1366"
     inkscape:window-height="705"
     inkscape:window-x="-8"
     inkscape:window-y="-8"
     inkscape:window-maximized="1" />
  <metadata
     id="metadata4696">
    <rdf:RDF>
      <cc:Work
         rdf:about="">
        <dc:format>image/svg+xml</dc:format>
        <dc:type
           rdf:resource="http://purl.org/dc/dcmitype/StillImage" />
        <dc:title></dc:title>
      </cc:Work>
    </rdf:RDF>
  </metadata>
  <g
     inkscape:label="Layer 1"
     inkscape:groupmode="layer"
     id="layer1"
     transform="translate(0,-52.362183)">
    <path
       id="path4704"
       d="M 506.40529,1050.3641"
       inkscape:connector-curvature="0"
       style="fill:none;stroke:#000000;stroke-width:0.35331774;stroke-linecap:round;stroke-linejoin:round" />
    <path
       id="path4706"
       d="M 397.82934,1050.3641"
       inkscape:connector-curvature="0"
       style="fill:none;stroke:#000000;stroke-width:0.35331774;stroke-linecap:round;stroke-linejoin:round" />
    <path
       id="path4708"
       d="M 540.67429,937.14908"
       inkscape:connector-curvature="0"
       style="fill:none;stroke:#000000;stroke-width:0.35331774;stroke-linecap:round;stroke-linejoin:round" />
    <path
       id="path4710"
       d="M 538.55615,935.93896"
       inkscape:connector-curvature="0"
       style="fill:none;stroke:#000000;stroke-width:0.35331774;stroke-linecap:round;stroke-linejoin:round" />
    <path
       id="path4712"
       d="M 865.04683,1050.3641"
       inkscape:connector-curvature="0"
       style="fill:none;stroke:#000000;stroke-width:0.35331774;stroke-linecap:round;stroke-linejoin:round" />
    <path
       id="path4717"
       d="m 999.69904,749.54972 h -3.5784 l -1.17019,-0.7144 -3.55579,-0.35792 -3.46675,-0.71546 -0.91121,-1.14369 -3.42188,-1.07338 -0.66106,-1.28643 -3.46675,-1.07338 -2.34815,-16.46002 -0.56248,-1.28643 2.77284,-2.14711 -0.5533,-1.28643 1.00625,-3.22049 -0.15193,-1.42917 0.35827,-3.5784 0.51796,-1.28643 3.09153,-4.37337 c 0.75433,-1.04794 0.99742,-1.78425 2.00861,-2.65695 1.16878,-1.00872 1.95491,-0.85043 2.46439,-2.35027 0.92605,-2.72584 -0.0141,-7.7161 -0.36356,-10.49071 -0.50065,-3.9727 -0.4473,-7.82033 -0.81157,-11.78067 -0.38053,-4.137 -2.6619,-5.49515 -4.87367,-8.83789 -1.17867,-1.78178 -2.4605,-4.00698 -3.24981,-5.95376 -0.69215,-1.70758 -0.59181,-3.35192 -0.59181,-5.34251 0,-3.11309 0.22153,-5.83999 1.46061,-8.56231 2.60254,-5.71915 5.3934,-12.70495 3.5512,-18.988 -1.09069,-3.71973 -2.71772,-7.74508 -2.18527,-11.93543 0.4367,-3.43424 2.72373,-6.67876 4.0681,-9.85791 1.17726,-2.78521 1.50796,-6.36467 1.95138,-9.34349 0.21163,-1.41963 0.004,-3.12828 0.43952,-4.50127 0.5374,-1.68674 2.14499,-3.45827 2.49195,-5.28669 l 0.0159,-0.0452 c 1.51538,-1.13273 2.22202,-2.89932 2.57533,-4.66591 0.70664,-7.77299 4.94645,-14.13271 6.00641,-21.9057 1.05995,-4.94645 -1.41327,-10.24622 -6.35972,-12.36612 -4.23982,-6.0064 -6.0064,-13.07276 -7.77299,-20.13911 0,-0.70664 0,-1.05996 0,-1.76659 -1.05996,-4.23982 -2.47323,-8.12631 -1.76659,-12.36612 0.70663,-2.11991 1.05995,-4.59313 0.35332,-6.71304 -3.17986,-10.24621 -5.29977,-21.55238 0.35331,-31.44528 3.53318,-6.35972 9.18626,-10.59953 16.33636,-12.08877 v 280.82224 z"
       inkscape:connector-curvature="0"
       style="fill:none;stroke:#000000;stroke-width:0.35331774;stroke-linecap:round;stroke-linejoin:round" />
  </g>
</svg>
