<?xml version="1.0" encoding="UTF-8" standalone="no"?>
<!-- Created with Inkscape (http://www.inkscape.org/) -->

<svg
   xmlns:dc="http://purl.org/dc/elements/1.1/"
   xmlns:cc="http://creativecommons.org/ns#"
   xmlns:rdf="http://www.w3.org/1999/02/22-rdf-syntax-ns#"
   xmlns:svg="http://www.w3.org/2000/svg"
   xmlns="http://www.w3.org/2000/svg"
   xmlns:sodipodi="http://sodipodi.sourceforge.net/DTD/sodipodi-0.dtd"
   xmlns:inkscape="http://www.inkscape.org/namespaces/inkscape"
   width="1000"
   height="1000"
   id="svg4691"
   version="1.1"
   inkscape:version="0.48.4 r9939"
   sodipodi:docname="bound_03.svg">
  <defs
     id="defs4693">
	
	
	

	
	
	
	
	
	
	
</defs>
  <sodipodi:namedview
     id="base"
     pagecolor="#ffffff"
     bordercolor="#666666"
     borderopacity="1.0"
     inkscape:pageopacity="0.0"
     inkscape:pageshadow="2"
     inkscape:zoom="0.7"
     inkscape:cx="938.97328"
     inkscape:cy="286.93959"
     inkscape:document-units="px"
     inkscape:current-layer="layer1"
     showgrid="false"
     inkscape:window-width="1366"
     inkscape:window-height="705"
     inkscape:window-x="-8"
     inkscape:window-y="-8"
     inkscape:window-maximized="1" />
  <metadata
     id="metadata4696">
    <rdf:RDF>
      <cc:Work
         rdf:about="">
        <dc:format>image/svg+xml</dc:format>
        <dc:type
           rdf:resource="http://purl.org/dc/dcmitype/StillImage" />
        <dc:title></dc:title>
      </cc:Work>
    </rdf:RDF>
  </metadata>
  <g
     inkscape:label="Layer 1"
     inkscape:groupmode="layer"
     id="layer1"
     transform="translate(0,-52.362183)">
    <polyline
       id="polyline4702"
       points="1438.47,2834.646    1439.319,2834.112 1440.177,2833.181 1442.184,2830.612 1443.04,2829.546 1452.752,2821.841 1453.867,2821.176 1464.702,2813.471    1465.734,2812.538 1478.255,2811.254 1480.527,2811.121 1493.368,2811.121 1494.684,2811.254 1507.525,2811.254 1508.857,2811.254    1510.131,2811.653 1522.731,2812.938 1523.931,2813.471 1535.648,2818.606 1536.847,2819.273 1547.923,2825.694 1549.154,2826.227    1560.792,2832.646 1562.016,2833.047 1563.331,2833.313 1629.382,2833.313 1630.673,2833.047 1631.839,2832.381 1640.266,2825.96    1641.048,2824.895 1649.556,2815.906 1657.42,2805.633 1657.771,2804.301 1658.536,2803.235 1667.444,2794.246 1668.485,2793.447    1677.233,2783.174 1678.024,2782.108 1686.853,2773.119 1687.752,2772.187 1697.944,2764.482 1698.91,2763.55 1700.01,2762.751    1710.604,2755.046 1720.073,2746.057 1721.131,2745.258 1731.323,2737.553 1732.239,2736.621 1742.352,2728.916 1743.201,2727.851    1752.431,2718.861 1753.097,2717.796 1762.085,2708.807 1771.154,2699.818 1771.479,2698.486 1774.052,2695.022 1785.367,2689.886    1786.658,2689.619 1787.883,2689.086 1793.919,2693.083 1793.553,2694.415 1804.307,2699.552 1804.182,2700.751 1804.257,2702.083    1800.565,2712.355 1800.757,2713.688 1796.102,2725.245 1794.979,2738.086 1795.436,2739.418 1791.103,2752.26 1791.835,2753.325    1792.16,2754.657 1784.615,2776.487 1785.178,2789.328 1785.644,2790.527 1786.418,2791.593 1787.176,2792.659 1780.113,2802.932    1780.879,2803.997 1781.604,2805.196 1782.212,2806.396 1773.063,2815.384 1763.833,2824.373 1755.005,2834.646 1438.47,2834.646     "
       style="fill:none;stroke:#000000;stroke-linecap:round;stroke-linejoin:round"
       transform="matrix(0.35331774,0,0,0.35331774,-1.8316757,48.833376)" />
    <path
       id="path4704"
       d="M 506.40529,1050.3641"
       inkscape:connector-curvature="0"
       style="fill:none;stroke:#000000;stroke-width:0.35331774;stroke-linecap:round;stroke-linejoin:round" />
    <path
       id="path4706"
       d="M 397.82934,1050.3641"
       inkscape:connector-curvature="0"
       style="fill:none;stroke:#000000;stroke-width:0.35331774;stroke-linecap:round;stroke-linejoin:round" />
    <path
       id="path4708"
       d="M 540.67429,937.14908"
       inkscape:connector-curvature="0"
       style="fill:none;stroke:#000000;stroke-width:0.35331774;stroke-linecap:round;stroke-linejoin:round" />
    <path
       id="path4710"
       d="M 538.55615,935.93896"
       inkscape:connector-curvature="0"
       style="fill:none;stroke:#000000;stroke-width:0.35331774;stroke-linecap:round;stroke-linejoin:round" />
    <path
       id="path4712"
       d="M 865.04683,1050.3641"
       inkscape:connector-curvature="0"
       style="fill:none;stroke:#000000;stroke-width:0.35331774;stroke-linecap:round;stroke-linejoin:round" />
  </g>
</svg>
