<?xml version="1.0" encoding="UTF-8" standalone="no"?>
<!-- Created with Inkscape (http://www.inkscape.org/) -->

<svg
   xmlns:dc="http://purl.org/dc/elements/1.1/"
   xmlns:cc="http://creativecommons.org/ns#"
   xmlns:rdf="http://www.w3.org/1999/02/22-rdf-syntax-ns#"
   xmlns:svg="http://www.w3.org/2000/svg"
   xmlns="http://www.w3.org/2000/svg"
   xmlns:sodipodi="http://sodipodi.sourceforge.net/DTD/sodipodi-0.dtd"
   xmlns:inkscape="http://www.inkscape.org/namespaces/inkscape"
   width="1000"
   height="1000"
   id="svg4691"
   version="1.1"
   inkscape:version="0.48.4 r9939"
   sodipodi:docname="bound_02.svg">
  <defs
     id="defs4693">
	
	
	

	
	
	
	
	
	
	
</defs>
  <sodipodi:namedview
     id="base"
     pagecolor="#ffffff"
     bordercolor="#666666"
     borderopacity="1.0"
     inkscape:pageopacity="0.0"
     inkscape:pageshadow="2"
     inkscape:zoom="0.7"
     inkscape:cx="938.97328"
     inkscape:cy="286.93959"
     inkscape:document-units="px"
     inkscape:current-layer="layer1"
     showgrid="false"
     inkscape:window-width="1366"
     inkscape:window-height="705"
     inkscape:window-x="-8"
     inkscape:window-y="-8"
     inkscape:window-maximized="1" />
  <metadata
     id="metadata4696">
    <rdf:RDF>
      <cc:Work
         rdf:about="">
        <dc:format>image/svg+xml</dc:format>
        <dc:type
           rdf:resource="http://purl.org/dc/dcmitype/StillImage" />
        <dc:title></dc:title>
      </cc:Work>
    </rdf:RDF>
  </metadata>
  <g
     inkscape:label="Layer 1"
     inkscape:groupmode="layer"
     id="layer1"
     transform="translate(0,-52.362183)">
    <path
       id="path4704"
       d="M 506.40529,1050.3641"
       inkscape:connector-curvature="0"
       style="fill:none;stroke:#000000;stroke-width:0.35331774;stroke-linecap:round;stroke-linejoin:round" />
    <path
       id="path4706"
       d="M 397.82934,1050.3641"
       inkscape:connector-curvature="0"
       style="fill:none;stroke:#000000;stroke-width:0.35331774;stroke-linecap:round;stroke-linejoin:round" />
    <path
       id="path4708"
       d="M 540.67429,937.14908"
       inkscape:connector-curvature="0"
       style="fill:none;stroke:#000000;stroke-width:0.35331774;stroke-linecap:round;stroke-linejoin:round" />
    <path
       id="path4710"
       d="M 538.55615,935.93896"
       inkscape:connector-curvature="0"
       style="fill:none;stroke:#000000;stroke-width:0.35331774;stroke-linecap:round;stroke-linejoin:round" />
    <path
       id="path4712"
       d="M 865.04683,1050.3641"
       inkscape:connector-curvature="0"
       style="fill:none;stroke:#000000;stroke-width:0.35331774;stroke-linecap:round;stroke-linejoin:round" />
    <path
       id="path4721"
       d="m 480.39263,1050.1874 c 1.04935,-1.2472 2.34567,-1.6984 3.01274,-3.2215 0.48864,-1.1144 0.6395,-2.3263 1.17337,-3.4339 1.0013,-2.0765 2.25664,-3.8777 3.51622,-5.8573 1.60688,-2.5248 3.63881,-4.5751 5.93821,-6.6187 1.73761,-1.544 3.9197,-2.7025 5.39551,-4.2575 4.12393,-4.3437 6.57277,-10.2674 6.57913,-16.3332 0.007,-6.2371 -2.19022,-12.2343 -3.31624,-18.17251 -1.22001,-6.43604 3.19435,-11.18887 7.70127,-14.7708 2.07327,-1.64752 4.17515,-4.42495 7.01265,-4.22921 3.04277,0.21057 5.7453,0.96703 8.00971,2.54989 0.73349,1.20835 0.36533,4.30023 1.43836,4.91748 l -0.11978,0.0767 -3.78968,1.70793 -3.92289,1.70794 -3.30882,2.56156 -1.94784,3.84268 -0.19857,0.14733 -2.375,3.41588 6.56429,12.80883 h 4.243 4.26949 l 0.19892,-0.1474 4.10943,-1.2811 4.64331,-6.4042 1.62738,-3.84304 6.06823,-5.07082 0.52574,0.5162 4.13593,-0.85362 0.70593,0.22153 0.67837,0.29502 4.21614,0.42681 0.67343,0.29538 4.00273,1.70793 0.7289,0.0738 4.18929,0.85361 4.18964,-0.85361 0.71476,-0.22153 2.00154,-0.85397 3.33532,-2.56156 0.44271,-0.29537 2.80216,-3.41552 0.41056,-0.5904 1.94819,-3.84268 0.23531,-0.66459 1.49418,-3.84268 0.0604,-0.73773 0.69356,-4.26985 -0.1067,-4.26984 -0.0555,-0.73808 -0.64056,-4.26949 -0.18408,-0.73808 -1.30763,-3.84269 -0.30421,-0.66423 -1.36133,-4.2695 -0.34131,-0.66423 -1.70793,-3.84304 -0.43812,-0.59004 -1.30763,-4.26985 -0.38299,-0.59039 -1.76094,-3.84268 -3.44202,-2.13475 -0.55824,-0.5169 -3.65613,-2.1344 -4.2165,-0.85432 h -0.73313 l -4.26985,0.42716 h -0.73313 -4.24299 l 2.02345,0.19857 c -3.26007,-0.53952 -5.5107,-2.10083 -9.00784,-2.11991 -4.79346,-0.0258 -8.85909,2.39161 -12.71944,4.90617 -4.75566,3.09824 -9.00713,7.05116 -13.70979,9.87523 -3.20918,1.92806 -6.39999,4.35252 -9.49718,6.59468 -2.77072,2.00578 -5.61916,2.58699 -9.18308,2.64953 -7.29389,0.1279 -12.54808,-1.47581 -19.0675,-4.29281 -4.2119,-1.81994 -8.22594,-4.00769 -12.7311,-5.12346 -3.55296,-0.87977 -8.65169,-2.31282 -8.77323,2.58558 l -0.0435,0.0965 c 2.752,1.14016 5.57854,3.26006 6.28517,6.43992 0.70664,3.8865 -0.70663,7.41968 -3.17986,10.59954 -3.17986,3.53317 -7.06635,5.29976 -10.95285,8.1263 -0.70663,0.35332 -1.05995,1.05996 -1.41327,1.76659 -1.41327,3.8865 -3.88649,7.06636 -7.06635,9.53958 -1.41327,0.70664 -3.17986,1.41327 -4.94645,1.76659 -6.35972,0.70664 -13.07276,1.76659 -18.37252,5.65308 -3.53318,4.59313 -8.12631,12.01276 -3.17986,16.95926 3.53317,4.2398 7.41967,8.4796 9.18626,13.7794 0.70663,3.8865 -2.47323,7.0663 -5.65309,8.4796 -3.17986,1.4133 -6.71303,1.7666 -9.89289,3.8865 -0.35332,0.3533 -1.05996,0 -1.41327,0.3533 -1.05996,0.7066 -2.11991,1.4133 -3.17986,2.1199 -0.70664,0.7066 -1.05996,1.4133 -1.76659,1.7666 -2.47323,2.4732 -3.8865,6.3597 -3.26536,9.8929 l 82.56364,-0.176 z"
       inkscape:connector-curvature="0"
       style="fill:none;stroke:#000000;stroke-width:0.35331774;stroke-linecap:round;stroke-linejoin:round" />
  </g>
</svg>
