<?xml version="1.0" encoding="UTF-8" standalone="no"?>
<!-- Created with Inkscape (http://www.inkscape.org/) -->

<svg
   xmlns:dc="http://purl.org/dc/elements/1.1/"
   xmlns:cc="http://creativecommons.org/ns#"
   xmlns:rdf="http://www.w3.org/1999/02/22-rdf-syntax-ns#"
   xmlns:svg="http://www.w3.org/2000/svg"
   xmlns="http://www.w3.org/2000/svg"
   xmlns:sodipodi="http://sodipodi.sourceforge.net/DTD/sodipodi-0.dtd"
   xmlns:inkscape="http://www.inkscape.org/namespaces/inkscape"
   width="1000"
   height="1000"
   id="svg4691"
   version="1.1"
   inkscape:version="0.48.4 r9939"
   sodipodi:docname="bound_04.svg">
  <defs
     id="defs4693">
	
	
	

	
	
	
	
	
	
	
</defs>
  <sodipodi:namedview
     id="base"
     pagecolor="#ffffff"
     bordercolor="#666666"
     borderopacity="1.0"
     inkscape:pageopacity="0.0"
     inkscape:pageshadow="2"
     inkscape:zoom="0.7"
     inkscape:cx="938.97328"
     inkscape:cy="286.93959"
     inkscape:document-units="px"
     inkscape:current-layer="layer1"
     showgrid="false"
     inkscape:window-width="1366"
     inkscape:window-height="705"
     inkscape:window-x="-8"
     inkscape:window-y="-8"
     inkscape:window-maximized="1" />
  <metadata
     id="metadata4696">
    <rdf:RDF>
      <cc:Work
         rdf:about="">
        <dc:format>image/svg+xml</dc:format>
        <dc:type
           rdf:resource="http://purl.org/dc/dcmitype/StillImage" />
        <dc:title></dc:title>
      </cc:Work>
    </rdf:RDF>
  </metadata>
  <g
     inkscape:label="Layer 1"
     inkscape:groupmode="layer"
     id="layer1"
     transform="translate(0,-52.362183)">
    <path
       id="path4704"
       d="M 506.40529,1050.3641"
       inkscape:connector-curvature="0"
       style="fill:none;stroke:#000000;stroke-width:0.35331774;stroke-linecap:round;stroke-linejoin:round" />
    <path
       id="path4706"
       d="M 397.82934,1050.3641"
       inkscape:connector-curvature="0"
       style="fill:none;stroke:#000000;stroke-width:0.35331774;stroke-linecap:round;stroke-linejoin:round" />
    <path
       id="path4708"
       d="M 540.67429,937.14908"
       inkscape:connector-curvature="0"
       style="fill:none;stroke:#000000;stroke-width:0.35331774;stroke-linecap:round;stroke-linejoin:round" />
    <path
       id="path4710"
       d="M 538.55615,935.93896"
       inkscape:connector-curvature="0"
       style="fill:none;stroke:#000000;stroke-width:0.35331774;stroke-linecap:round;stroke-linejoin:round" />
    <path
       id="path4712"
       d="M 865.04683,1050.3641"
       inkscape:connector-curvature="0"
       style="fill:none;stroke:#000000;stroke-width:0.35331774;stroke-linecap:round;stroke-linejoin:round" />
    <polyline
       id="polyline4714"
       points="2453.538,2834.646    2834.646,2834.646 2834.646,2721.852 2832.684,2721.852 2822.683,2719.826 2807.335,2717.398 2797.333,2716.386 2787.206,2715.373    2783.792,2713.351 2773.665,2713.351 2769.923,2711.731 2759.858,2710.719 2756.167,2709.102 2746.355,2707.075 2742.79,2705.053    2732.789,2703.027 2729.072,2701.813 2719.071,2702.826 2709.261,2705.864 2705.29,2705.056 2701.321,2704.246 2691.257,2703.233    2681.192,2703.233 2677.222,2704.043 2667.157,2704.043 2663.391,2705.256 2653.325,2705.256 2643.642,2708.294 2640.456,2710.722    2631.024,2713.76 2627.51,2715.783 2623.489,2716.188 2613.805,2719.227 2610.265,2721.248 2600.771,2725.3 2594.694,2732.39    2589.503,2741.504 2586.898,2744.74 2578.86,2750.817 2576.862,2754.054 2569.757,2754.458 2565.965,2752.84 2556.47,2749.802    2552.602,2748.992 2548.783,2747.374 2541.314,2741.298 2534.035,2734.208 2530.065,2734.613 2521.583,2729.549 2511.583,2727.523    2501.645,2729.549 2492.53,2734.613 2489.622,2737.444 2479.938,2738.254 2476.929,2735.422 2467.308,2738.46 2457.37,2740.485    2453.628,2738.868 2443.563,2738.868 2439.594,2738.868 2429.529,2739.881 2421.11,2744.944 2415.288,2753.047 2412.48,2755.878    2408.999,2766.006 2407.671,2775.121 2407.646,2779.167 2410.62,2789.294 2415.747,2798.409 2417.618,2801.646 2423.188,2809.748    2426.021,2812.579 2433.173,2819.669 2436.763,2821.691 2444.991,2827.769 2448.658,2829.386 2453.538,2834.646  "
       style="fill:none;stroke:#000000;stroke-linecap:round;stroke-linejoin:round"
       transform="matrix(0.35331774,0,0,0.35331774,-3.8316757,48.833376)" />
  </g>
</svg>
