<?xml version="1.0" encoding="UTF-8" standalone="no"?>
<!-- Created with Inkscape (http://www.inkscape.org/) -->

<svg
   xmlns:dc="http://purl.org/dc/elements/1.1/"
   xmlns:cc="http://creativecommons.org/ns#"
   xmlns:rdf="http://www.w3.org/1999/02/22-rdf-syntax-ns#"
   xmlns:svg="http://www.w3.org/2000/svg"
   xmlns="http://www.w3.org/2000/svg"
   xmlns:xlink="http://www.w3.org/1999/xlink"
   xmlns:sodipodi="http://sodipodi.sourceforge.net/DTD/sodipodi-0.dtd"
   xmlns:inkscape="http://www.inkscape.org/namespaces/inkscape"
   width="744.09448819"
   height="1052.3622047"
   id="svg2"
   version="1.1"
   inkscape:version="0.48.4 r9939"
   sodipodi:docname="path_04.svg">
  <defs
     id="defs4">
	
	
	
	
</defs>
  <sodipodi:namedview
     id="base"
     pagecolor="#ffffff"
     bordercolor="#666666"
     borderopacity="1.0"
     inkscape:pageopacity="0.0"
     inkscape:pageshadow="2"
     inkscape:zoom="0.49497475"
     inkscape:cx="510.16343"
     inkscape:cy="540.44001"
     inkscape:document-units="px"
     inkscape:current-layer="layer1"
     showgrid="false"
     showguides="true"
     inkscape:guide-bbox="true"
     inkscape:window-width="1366"
     inkscape:window-height="705"
     inkscape:window-x="-8"
     inkscape:window-y="-8"
     inkscape:window-maximized="1">
    <sodipodi:guide
       orientation="1,0"
       position="1000,1210.3571"
       id="guide2985" />
    <sodipodi:guide
       orientation="1,0"
       position="0,848.57143"
       id="guide2987" />
    <sodipodi:guide
       orientation="0,1"
       position="0,1052.3605"
       id="guide2989" />
  </sodipodi:namedview>
  <metadata
     id="metadata7">
    <rdf:RDF>
      <cc:Work
         rdf:about="">
        <dc:format>image/svg+xml</dc:format>
        <dc:type
           rdf:resource="http://purl.org/dc/dcmitype/StillImage" />
        <dc:title></dc:title>
      </cc:Work>
    </rdf:RDF>
  </metadata>
  <g
     inkscape:label="Layer 1"
     inkscape:groupmode="layer"
     id="layer1">
    <image
       style="display:none;overflow:visible"
       display="none"
       overflow="visible"
       enable-background="new    "
       width="1000.0005"
       height="1000.0005"
       xlink:href="C:\Users\ipnu dwi santoso\Downloads\A0E9C6B7.jpeg"
       id="image2992"
       sodipodi:absref="C:\Users\ipnu dwi santoso\Downloads\A0E9C6B7.jpeg"
       x="-0.00053166726"
       y="0.001685">
</image>
    <path
       id="path3008"
       d="m 599.65501,296.2831 c 4.01875,-0.125 -2.08958,0.33333 -4.51458,0.24583 -10.07084,-0.3625 -13.19376,-0.69583 -21.87502,1.73542 -8.68125,2.43125 -19.44376,5.90209 -26.04168,9.72292 -6.59792,3.82084 -11.46042,7.63959 -16.32084,12.84793 -4.86042,5.20833 -11.45834,9.375 -15.27709,8.33334 -3.81875,-1.04167 -18.05626,-7.29167 -25.34793,-8.68126 -7.29167,-1.38958 -54.51462,5.55625 -62.50004,6.25 -7.98542,0.69376 -35.41668,3.09792 -44.09794,2.59167 -8.68125,-0.50625 -25.34585,-1.55 -34.72085,8.17292 -9.37501,9.72293 -17.36043,18.05626 -23.61043,23.95835 -6.25,5.90209 -25.34793,18.75001 -35.7646,20.83335 -10.41668,2.08333 -26.3896,2.08333 -42.36044,-7.29168 -15.97085,-9.375 -30.90211,-29.86043 -83.6813,-27.43126 -52.7792,2.42917 -56.94378,8.68125 -68.402123,13.54167 -11.45834,4.86042 -17.360427,7.98543 -21.527096,9.02709 -4.166669,1.04167 -34.027102,23.95835 -40.625023,28.47293 -6.59792,4.51459 -25.6958473,18.05626 -32.987518,18.40418"
       stroke-miterlimit="10"
       inkscape:connector-curvature="0"
       style="fill:none;stroke:#d30d0d;stroke-width:1.04166722;stroke-miterlimit:10" />
    <g
       id="Layer_6"
       transform="matrix(2.0833345,0,0,2.0833345,-499.99977,-83.331695)">
	
</g>
  </g>
</svg>
