<?xml version="1.0" encoding="UTF-8" standalone="no"?>
<!-- Created with Inkscape (http://www.inkscape.org/) -->

<svg
   xmlns:dc="http://purl.org/dc/elements/1.1/"
   xmlns:cc="http://creativecommons.org/ns#"
   xmlns:rdf="http://www.w3.org/1999/02/22-rdf-syntax-ns#"
   xmlns:svg="http://www.w3.org/2000/svg"
   xmlns="http://www.w3.org/2000/svg"
   xmlns:xlink="http://www.w3.org/1999/xlink"
   xmlns:sodipodi="http://sodipodi.sourceforge.net/DTD/sodipodi-0.dtd"
   xmlns:inkscape="http://www.inkscape.org/namespaces/inkscape"
   width="744.09448819"
   height="1052.3622047"
   id="svg2"
   version="1.1"
   inkscape:version="0.48.4 r9939"
   sodipodi:docname="path_02.svg">
  <defs
     id="defs4">
	
	
</defs>
  <sodipodi:namedview
     id="base"
     pagecolor="#ffffff"
     bordercolor="#666666"
     borderopacity="1.0"
     inkscape:pageopacity="0.0"
     inkscape:pageshadow="2"
     inkscape:zoom="0.49497475"
     inkscape:cx="510.16343"
     inkscape:cy="540.44001"
     inkscape:document-units="px"
     inkscape:current-layer="layer1"
     showgrid="false"
     showguides="true"
     inkscape:guide-bbox="true"
     inkscape:window-width="1366"
     inkscape:window-height="705"
     inkscape:window-x="-8"
     inkscape:window-y="-8"
     inkscape:window-maximized="1">
    <sodipodi:guide
       orientation="1,0"
       position="1000,1210.3571"
       id="guide2985" />
    <sodipodi:guide
       orientation="1,0"
       position="0,848.57143"
       id="guide2987" />
    <sodipodi:guide
       orientation="0,1"
       position="0,1052.3605"
       id="guide2989" />
  </sodipodi:namedview>
  <metadata
     id="metadata7">
    <rdf:RDF>
      <cc:Work
         rdf:about="">
        <dc:format>image/svg+xml</dc:format>
        <dc:type
           rdf:resource="http://purl.org/dc/dcmitype/StillImage" />
        <dc:title></dc:title>
      </cc:Work>
    </rdf:RDF>
  </metadata>
  <g
     inkscape:label="Layer 1"
     inkscape:groupmode="layer"
     id="layer1">
    <image
       style="display:none;overflow:visible"
       display="none"
       overflow="visible"
       enable-background="new    "
       width="1000.0005"
       height="1000.0005"
       xlink:href="C:\Users\ipnu dwi santoso\Downloads\A0E9C6B7.jpeg"
       id="image2992"
       sodipodi:absref="C:\Users\ipnu dwi santoso\Downloads\A0E9C6B7.jpeg"
       x="-0.00053166726"
       y="0.001685">
</image>
    <path
       id="path3005"
       d="m 705.06965,444.2186 c 16.63543,10.47084 26.35627,13.07501 36.25211,15.50626 9.89584,2.43125 24.48126,4.45833 48.26461,-7.75417 23.78335,-12.21251 16.49167,-9.78126 20.13751,-10.99584 3.64584,-1.21459 16.84168,-3.99375 28.30002,2.43125 11.45834,6.425 8.67917,1.76875 28.47085,18.15834 19.79167,16.3896 23.95834,21.2521 34.37501,26.28543 10.41668,5.03334 24.48127,7.98543 30.38335,9.20209 5.90209,1.21667 21.87502,4.68751 29.3396,9.37501 7.46459,4.6875 10.59168,4.33958 15.4521,21.17918 4.86042,16.83959 8.33542,33.50627 9.20209,49.30627 0.86666,15.80001 3.99375,25.86669 10.41667,33.33336 6.42293,7.46667 0.34166,-0.86667 4.33753,4.8625"
       stroke-miterlimit="10"
       inkscape:connector-curvature="0"
       style="fill:none;stroke:#d30b0b;stroke-width:2.08333445;stroke-miterlimit:10" />
    <g
       id="Layer_6"
       transform="matrix(2.0833345,0,0,2.0833345,-499.99977,-83.331695)">
	
</g>
  </g>
</svg>
