<?xml version="1.0" encoding="UTF-8" standalone="no"?>
<!-- Created with Inkscape (http://www.inkscape.org/) -->

<svg
   xmlns:dc="http://purl.org/dc/elements/1.1/"
   xmlns:cc="http://creativecommons.org/ns#"
   xmlns:rdf="http://www.w3.org/1999/02/22-rdf-syntax-ns#"
   xmlns:svg="http://www.w3.org/2000/svg"
   xmlns="http://www.w3.org/2000/svg"
   xmlns:xlink="http://www.w3.org/1999/xlink"
   xmlns:sodipodi="http://sodipodi.sourceforge.net/DTD/sodipodi-0.dtd"
   xmlns:inkscape="http://www.inkscape.org/namespaces/inkscape"
   width="744.09448819"
   height="1052.3622047"
   id="svg2"
   version="1.1"
   inkscape:version="0.48.4 r9939"
   sodipodi:docname="path_00.svg">
  <defs
     id="defs4" />
  <sodipodi:namedview
     id="base"
     pagecolor="#ffffff"
     bordercolor="#666666"
     borderopacity="1.0"
     inkscape:pageopacity="0.0"
     inkscape:pageshadow="2"
     inkscape:zoom="0.49497475"
     inkscape:cx="510.16343"
     inkscape:cy="621.25221"
     inkscape:document-units="px"
     inkscape:current-layer="layer1"
     showgrid="false"
     showguides="true"
     inkscape:guide-bbox="true"
     inkscape:window-width="1366"
     inkscape:window-height="705"
     inkscape:window-x="-8"
     inkscape:window-y="-8"
     inkscape:window-maximized="1">
    <sodipodi:guide
       orientation="1,0"
       position="1000,1210.3571"
       id="guide2985" />
    <sodipodi:guide
       orientation="1,0"
       position="0,848.57143"
       id="guide2987" />
    <sodipodi:guide
       orientation="0,1"
       position="0,1052.3605"
       id="guide2989" />
  </sodipodi:namedview>
  <metadata
     id="metadata7">
    <rdf:RDF>
      <cc:Work
         rdf:about="">
        <dc:format>image/svg+xml</dc:format>
        <dc:type
           rdf:resource="http://purl.org/dc/dcmitype/StillImage" />
        <dc:title></dc:title>
      </cc:Work>
    </rdf:RDF>
  </metadata>
  <g
     inkscape:label="Layer 1"
     inkscape:groupmode="layer"
     id="layer1">
    <image
       style="display:none;overflow:visible"
       display="none"
       overflow="visible"
       enable-background="new    "
       width="1000.0005"
       height="1000.0005"
       xlink:href="C:\Users\ipnu dwi santoso\Downloads\A0E9C6B7.jpeg"
       id="image2992"
       sodipodi:absref="C:\Users\ipnu dwi santoso\Downloads\A0E9C6B7.jpeg"
       x="-0.00053166726"
       y="0.001685">
</image>
    <g
       id="Layer_3"
       transform="matrix(2.0833345,0,0,2.0833345,-499.99977,-83.331695)">
	<path
   style="fill:none;stroke:#fc0606;stroke-width:3;stroke-miterlimit:10"
   inkscape:connector-curvature="0"
   stroke-miterlimit="10"
   d="m 240,498.375 c 14.625,-4.5 43.125,-13.875 44.375,-14.25 1.25,-0.375 10.5,-1.625 18.125,-13.25 7.625,-11.625 13.75,-23.25 17.25,-29.125 3.5,-5.875 10.875,-19.5 17,-26.25 6.125,-6.75 10.375,-10.75 24.25,-19.75 13.875,-9 28.25,-18.5 33.125,-21.375 C 399,371.5 417.625,358.25 424.25,353 c 6.625,-5.25 17.5,-14.625 26.875,-27.75 9.375,-13.125 13.25,-20.125 44.5,-33.875 31.25,-13.75 52.875,-24.625 57.125,-26.75 4.25,-2.125 27.625,-12.125 36.5,-16.25 8.875,-4.125 19.875,-11.625 28.375,-20.125 8.5,-8.5 21.25,-20.875 29.625,-27.625 8.375,-6.75 15.375,-13.875 37,-16.5 21.625,-2.625 35.125,-4.5 35.75,-5.125"
   id="path3000" />

</g>
    <g
       id="Layer_6"
       transform="matrix(2.0833345,0,0,2.0833345,-499.99977,-83.331695)">
	
</g>
  </g>
</svg>
