<?xml version="1.0" encoding="UTF-8" standalone="no"?>
<!-- Created with Inkscape (http://www.inkscape.org/) -->

<svg
   xmlns:dc="http://purl.org/dc/elements/1.1/"
   xmlns:cc="http://creativecommons.org/ns#"
   xmlns:rdf="http://www.w3.org/1999/02/22-rdf-syntax-ns#"
   xmlns:svg="http://www.w3.org/2000/svg"
   xmlns="http://www.w3.org/2000/svg"
   xmlns:xlink="http://www.w3.org/1999/xlink"
   xmlns:sodipodi="http://sodipodi.sourceforge.net/DTD/sodipodi-0.dtd"
   xmlns:inkscape="http://www.inkscape.org/namespaces/inkscape"
   width="744.09448819"
   height="1052.3622047"
   id="svg2"
   version="1.1"
   inkscape:version="0.48.4 r9939"
   sodipodi:docname="path_01.svg">
  <defs
     id="defs4">
	
	
</defs>
  <sodipodi:namedview
     id="base"
     pagecolor="#ffffff"
     bordercolor="#666666"
     borderopacity="1.0"
     inkscape:pageopacity="0.0"
     inkscape:pageshadow="2"
     inkscape:zoom="0.49497475"
     inkscape:cx="510.16343"
     inkscape:cy="540.44001"
     inkscape:document-units="px"
     inkscape:current-layer="layer1"
     showgrid="false"
     showguides="true"
     inkscape:guide-bbox="true"
     inkscape:window-width="1366"
     inkscape:window-height="705"
     inkscape:window-x="-8"
     inkscape:window-y="-8"
     inkscape:window-maximized="1">
    <sodipodi:guide
       orientation="1,0"
       position="1000,1210.3571"
       id="guide2985" />
    <sodipodi:guide
       orientation="1,0"
       position="0,848.57143"
       id="guide2987" />
    <sodipodi:guide
       orientation="0,1"
       position="0,1052.3605"
       id="guide2989" />
  </sodipodi:namedview>
  <metadata
     id="metadata7">
    <rdf:RDF>
      <cc:Work
         rdf:about="">
        <dc:format>image/svg+xml</dc:format>
        <dc:type
           rdf:resource="http://purl.org/dc/dcmitype/StillImage" />
        <dc:title></dc:title>
      </cc:Work>
    </rdf:RDF>
  </metadata>
  <g
     inkscape:label="Layer 1"
     inkscape:groupmode="layer"
     id="layer1">
    <image
       style="display:none;overflow:visible"
       display="none"
       overflow="visible"
       enable-background="new    "
       width="1000.0005"
       height="1000.0005"
       xlink:href="C:\Users\ipnu dwi santoso\Downloads\A0E9C6B7.jpeg"
       id="image2992"
       sodipodi:absref="C:\Users\ipnu dwi santoso\Downloads\A0E9C6B7.jpeg"
       x="-0.00053166726"
       y="0.001685">
</image>
    <path
       id="path3003"
       d="m 84.375557,997.22516 c 5.208336,-21.87501 2.431252,-66.66462 3.125002,-79.51254 0.69375,-12.84793 3.472919,-29.51252 9.722922,-38.54169 6.249999,-9.02917 17.014589,-26.3896 41.318769,-43.05628 24.30418,-16.66667 42.70836,-26.04168 50.00003,-62.15211 7.29167,-36.11044 3.47292,-50.00212 28.47293,-80.90422 25.00002,-30.9021 36.11044,-44.09794 46.18128,-55.90211 10.07084,-11.80417 14.58334,-20.13751 40.97294,-36.80419 26.3896,-16.66667 67.70837,-42.71044 77.77713,-48.96044 10.06875,-6.25001 52.77711,-22.9146 61.45836,-58.33337 8.68126,-35.41669 5.55626,-46.18127 7.98543,-64.93129 2.42916,-18.75001 12.84792,-57.63961 36.80627,-72.56879 23.95834,-14.92917 27.08335,-15.625 43.75002,-18.75001 16.66668,-3.125 36.10835,-8.33333 57.28962,-27.43126 21.18126,-19.09793 23.96043,-23.61043 40.27919,-29.86044 16.31875,-6.25 29.51251,-9.375 44.44377,-9.72292 14.93126,-0.34791 58.6792,-14.58334 65.27712,-18.05626 6.59792,-3.47292 56.25212,-26.3896 71.18129,-42.70835 14.92918,-16.31876 53.81878,-57.2917 65.27712,-70.83338 11.45834,-13.54167 24.30626,-28.47293 31.59793,-35.41668 7.29168,-6.943758 11.45626,-15.277096 23.61043,-25.693769 12.15418,-10.416672 25.69585,-17.708343 32.63961,-20.833345 6.94375,-3.125001 23.95834,-5.208336 30.20835,-4.514585 6.25003,0.69375 6.25003,0.69375 6.25003,0.69375"
       stroke-miterlimit="10"
       inkscape:connector-curvature="0"
       style="fill:none;stroke:#d30b0b;stroke-width:2.08333445;stroke-miterlimit:10" />
    <g
       id="Layer_6"
       transform="matrix(2.0833345,0,0,2.0833345,-499.99977,-83.331695)">
	
</g>
  </g>
</svg>
