<?xml version="1.0" encoding="UTF-8" standalone="no"?>
<!-- Created with Inkscape (http://www.inkscape.org/) -->

<svg
   xmlns:dc="http://purl.org/dc/elements/1.1/"
   xmlns:cc="http://creativecommons.org/ns#"
   xmlns:rdf="http://www.w3.org/1999/02/22-rdf-syntax-ns#"
   xmlns:svg="http://www.w3.org/2000/svg"
   xmlns="http://www.w3.org/2000/svg"
   xmlns:xlink="http://www.w3.org/1999/xlink"
   xmlns:sodipodi="http://sodipodi.sourceforge.net/DTD/sodipodi-0.dtd"
   xmlns:inkscape="http://www.inkscape.org/namespaces/inkscape"
   width="744.09448819"
   height="1052.3622047"
   id="svg2"
   version="1.1"
   inkscape:version="0.48.4 r9939"
   sodipodi:docname="path_03.svg">
  <defs
     id="defs4" />
  <sodipodi:namedview
     id="base"
     pagecolor="#ffffff"
     bordercolor="#666666"
     borderopacity="1.0"
     inkscape:pageopacity="0.0"
     inkscape:pageshadow="2"
     inkscape:zoom="0.49497475"
     inkscape:cx="510.16343"
     inkscape:cy="540.44001"
     inkscape:document-units="px"
     inkscape:current-layer="layer1"
     showgrid="false"
     showguides="true"
     inkscape:guide-bbox="true"
     inkscape:window-width="1366"
     inkscape:window-height="705"
     inkscape:window-x="-8"
     inkscape:window-y="-8"
     inkscape:window-maximized="1">
    <sodipodi:guide
       orientation="1,0"
       position="1000,1210.3571"
       id="guide2985" />
    <sodipodi:guide
       orientation="1,0"
       position="0,848.57143"
       id="guide2987" />
    <sodipodi:guide
       orientation="0,1"
       position="0,1052.3605"
       id="guide2989" />
  </sodipodi:namedview>
  <metadata
     id="metadata7">
    <rdf:RDF>
      <cc:Work
         rdf:about="">
        <dc:format>image/svg+xml</dc:format>
        <dc:type
           rdf:resource="http://purl.org/dc/dcmitype/StillImage" />
        <dc:title></dc:title>
      </cc:Work>
    </rdf:RDF>
  </metadata>
  <g
     inkscape:label="Layer 1"
     inkscape:groupmode="layer"
     id="layer1">
    <image
       style="display:none;overflow:visible"
       display="none"
       overflow="visible"
       enable-background="new    "
       width="1000.0005"
       height="1000.0005"
       xlink:href="C:\Users\ipnu dwi santoso\Downloads\A0E9C6B7.jpeg"
       id="image2992"
       sodipodi:absref="C:\Users\ipnu dwi santoso\Downloads\A0E9C6B7.jpeg"
       x="-0.00053166726"
       y="0.001685">
</image>
    <path
       style="fill:none;stroke:#d30d0d;stroke-width:1.04166722;stroke-miterlimit:10"
       inkscape:connector-curvature="0"
       stroke-miterlimit="10"
       d="m 606.94668,296.26227 c 60.5917,-2.3375 66.49379,-0.0813 74.30629,-5.81042 0,0 5.73126,-5.55417 11.80626,-7.98542 6.075,-2.43125 15.62293,-7.11876 27.42918,-8.16042 11.80626,-1.04167 11.80626,-1.21667 17.0146,-1.38959 5.20833,-0.17292 9.89584,-2.43125 18.22917,-8.33334 8.33334,-5.90208 19.26876,-13.54167 33.67919,-15.10417 14.41042,-1.5625 21.00626,-3.29792 37.3271,-6.42292 16.32085,-3.125 25.17293,-8.50626 30.9021,-9.20209 5.72917,-0.69583 10.06876,-1.21458 15.97293,-0.86875 5.90417,0.34583 13.19376,-3.47292 18.22918,-6.77084 5.03542,-3.29792 6.07708,-3.64583 10.9375,-17.18751 4.86042,-13.54167 9.20209,-28.29793 11.80626,-31.59793 2.60417,-3.3 6.94167,-9.89584 14.40834,-10.93751 7.46667,-1.04167 11.11042,-0.34792 20.83335,-3.125 9.72292,-2.77709 14.75625,-3.64584 20.83334,-3.47292 6.07709,0.17292 6.77084,0.30417 11.97917,-0.0208 5.20834,-0.325 13.71668,2.97292 17.36046,5.925"
       id="path2994" />
    <g
       id="Layer_6"
       transform="matrix(2.0833345,0,0,2.0833345,-499.99977,-83.331695)">
	
</g>
  </g>
</svg>
